<?xml version="1.0" encoding="UTF-8" standalone="no"?>
<svg
   width="100"
   height="100"
   version="1.1"
   id="svg1"
   sodipodi:docname="email.svg"
   inkscape:version="1.3 (0e150ed6c4, 2023-07-21)"
   xmlns:inkscape="http://www.inkscape.org/namespaces/inkscape"
   xmlns:sodipodi="http://sodipodi.sourceforge.net/DTD/sodipodi-0.dtd"
   xmlns="http://www.w3.org/2000/svg"
   xmlns:svg="http://www.w3.org/2000/svg">
  <path
     style="fill:#ffffff;stroke-width:1.24775"
     d="M 50 0 A 50 50 0 0 0 0 50 A 50 50 0 0 0 50 100 A 50 50 0 0 0 100 50 A 50 50 0 0 0 50 0 z M 12.5 25 L 87.5 25 L 87.5 75 L 12.5 75 L 12.5 25 z M 15 27.5 L 15 32.986328 C 26.667141 38.656545 50 50 50 50 L 85 32.986328 L 85 27.5 L 15 27.5 z M 15 35.486328 L 15 70.736328 L 43.199219 49.195312 L 15 35.486328 z M 85 35.486328 L 56.800781 49.195312 L 85 70.736328 L 85 35.486328 z M 45.599609 50.361328 L 16.619141 72.5 L 83.380859 72.5 L 54.400391 50.361328 L 50 52.5 L 45.599609 50.361328 z " />
</svg>
