<?xml version="1.0" encoding="UTF-8" standalone="no"?>
<!-- Created with Inkscape (http://www.inkscape.org/) -->

<svg
        width="8.8001461mm"
        height="4.2939639mm"
        viewBox="0 0 8.8001461 4.2939639"
        version="1.1"
        id="svg1"
        xmlns:inkscape="http://www.inkscape.org/namespaces/inkscape"
        xmlns:sodipodi="http://sodipodi.sourceforge.net/DTD/sodipodi-0.dtd"
        xmlns="http://www.w3.org/2000/svg"
>
    <sodipodi:namedview
            id="namedview1"
            pagecolor="#ffffff"
            bordercolor="#000000"
            borderopacity="0.25"
            inkscape:showpageshadow="2"
            inkscape:pageopacity="0.0"
            inkscape:pagecheckerboard="0"
            inkscape:deskcolor="#d1d1d1"
            inkscape:document-units="mm"/>
    <defs
            id="defs1"/>
    <g
            inkscape:label="Laag 1"
            inkscape:groupmode="layer"
            id="layer1"
            transform="translate(-87.931422,-71.241612)">
        <path
                style="font-size:5.64444px;font-family:'Snap ITC';-inkscape-font-specification:'Snap ITC';text-align:end;text-anchor:end;fill:#090c9b;fill-opacity:1;stroke-width:0.264583"
                d="m 92.498237,71.241612 -1.245745,0.716579 q 0.520898,0.311437 0.802017,0.741384 0.28112,0.429948 0.28112,0.912261 0,0.837846 -0.691775,1.358745 -0.689018,0.520898 -1.813497,0.520898 -0.843358,0 -1.372525,-0.336241 -0.52641,-0.336242 -0.52641,-0.848871 0,-0.399631 0.270096,-0.664214 0.272851,-0.264583 0.832334,-0.410655 l -1.094162,-0.162609 2.193836,-0.292144 q -0.242535,0.195682 -0.363802,0.394119 -0.121267,0.198437 -0.121267,0.399631 0,0.223242 0.132291,0.358289 0.132292,0.135048 0.352778,0.135048 0.338997,0 0.534678,-0.248047 0.198437,-0.248046 0.198437,-0.677994 0,-0.35829 -0.110243,-0.639409 -0.107487,-0.283876 -0.338997,-0.523654 l -1.405598,-0.283876 z m 1.557183,3.33485 q 0.421679,-0.248047 0.625628,-0.44924 0.206706,-0.201194 0.206706,-0.363802 0,-0.104731 -0.08544,-0.173633 -0.08268,-0.0689 -0.209462,-0.0689 -0.08819,0 -0.198437,0.0248 -0.110243,0.02205 -0.231511,0.06615 z m 0.198437,-1.863106 q 0.30868,-0.03583 0.498849,-0.14056 0.190169,-0.107487 0.190169,-0.237022 0,-0.187414 -0.201193,-0.2949 -0.201193,-0.110243 -0.559483,-0.118512 z m 1.212673,0.327973 q 0.620116,0.03858 0.942577,0.275607 0.322461,0.237022 0.322461,0.655946 0,0.584287 -0.463021,0.890212 -0.46302,0.303168 -1.546157,0.418923 l -2.433614,0.253559 1.146527,-0.537435 -0.551215,-3.33485 -0.790993,-0.361045 2.816708,0.146072 q 0.813042,0.04134 1.132746,0.206705 0.322461,0.165365 0.322461,0.520898 0,0.300412 -0.223242,0.515386 -0.220486,0.212218 -0.675238,0.350022 z"
                id="text1"
                aria-label="JB"/>
    </g>
</svg>
